<svg width="163" height="64" viewBox="0 0 163 64" fill="none" xmlns="http://www.w3.org/2000/svg">
<circle cx="124.902" cy="32" r="32" fill="#38B7FF"/>
<path d="M22.9343 27.3326L17.8378 32.4291H5.09652V33.7032H20.3861V38.7998H5.09652V47.0816L0 41.9851V27.3326H22.9343Z" fill="#38B7FF"/>
<path d="M21.0078 36.2515V30.5179L26.1044 25.4214V36.2515C26.1044 37.3048 26.4781 38.2052 27.2256 38.9527C27.9731 39.7001 28.8735 40.0739 29.9267 40.0739H32.475C33.5283 40.0739 34.4287 39.7001 35.1762 38.9527C35.9237 38.2052 36.2974 37.3048 36.2974 36.2515V27.3326H41.3939V36.2515C41.3939 38.7148 40.5233 40.8171 38.7819 42.5584C37.0406 44.2998 34.9383 45.1704 32.475 45.1704H29.9267C27.4634 45.1704 25.3611 44.2998 23.6198 42.5584C21.8785 40.8171 21.0078 38.7148 21.0078 36.2515ZM51.801 45.1704V32.1233H42.0157V27.2307H66.479V32.1233H56.6937V45.1704H51.801ZM67.4575 45.1704V27.2307H72.3502V40.2778H78.0583L91.1053 27.2307H98.4443L80.5046 45.1704H67.4575ZM118.993 45.1704V38.6469H105.131L110.024 33.7542H123.886V45.1704H118.993ZM99.4229 45.1704V27.2307H123.886L118.993 32.1233H104.316V45.1704H99.4229ZM124.865 45.1704V27.2307H129.757V45.1704H124.865ZM148.741 45.1704H142.948L138.695 39.247L136.007 45.1704H139.843L132.249 51.1982L134.467 45.1704H130.371L133.267 38.7773H138.355L130.736 28.2092H136.529L139.477 32.306L142.817 28.2092H148.871L142.348 36.2723L148.741 45.1704Z" fill="white"/>
<path d="M150.313 23.2249L145.545 26.4901L144.218 20.444L137.729 18.232L156.456 13.675L156.638 27.2934L150.313 23.2249Z" fill="white"/>
<path d="M144.219 20.4439L156.016 14.1029L150.316 23.2241" stroke="#C8C6C6" stroke-width="0.294931"/>
<path d="M155.573 14.5454L145.545 26.3426" stroke="#C8C6C6" stroke-width="0.294931"/>
</svg>
