<svg width="1440" height="1024" viewBox="0 0 1440 1024" fill="none" xmlns="http://www.w3.org/2000/svg">
<path d="M69.2892 461.018L69.298 448.44H69.3331L69.3243 448.422L78.3521 448.449L78.3433 450.894L71.8836 450.885L71.8486 453.515L75.2932 453.524V456.004L71.8223 455.995L71.8048 457.17L69.2892 461.018ZM74.6183 482.026H72.8215C71.9801 482.026 71.238 481.778 70.5952 481.281C69.9583 480.785 69.5259 480.145 69.298 479.362L69.2454 479.134C69.2104 478.982 69.1928 478.751 69.1928 478.441L69.2016 469.405L71.682 469.414V478.415C71.682 478.725 71.7931 478.991 72.0151 479.213C72.2372 479.429 72.5059 479.537 72.8215 479.537H74.6183C74.928 479.537 75.1909 479.429 75.4071 479.213C75.6292 478.997 75.7402 478.737 75.7402 478.433V469.422L78.2557 469.431V478.433C78.2557 479.093 78.0921 479.695 77.7649 480.238C77.4376 480.782 76.9994 481.217 76.4501 481.544C75.9009 481.866 75.2902 482.026 74.6183 482.026ZM72.3745 502.991L72.3832 492.877L69.1315 492.885L69.1402 490.396L78.2206 490.422L78.2119 492.868L74.9513 492.877L74.8988 499.143L72.3745 502.991ZM74.6183 524.026H72.8215C71.9801 524.026 71.238 523.778 70.5952 523.281C69.9583 522.785 69.5259 522.145 69.298 521.362L69.2454 521.134C69.2104 520.982 69.1928 520.751 69.1928 520.441L69.2016 511.405L71.682 511.414V520.415C71.682 520.725 71.7931 520.991 72.0151 521.213C72.2372 521.429 72.5059 521.537 72.8215 521.537H74.6183C74.928 521.537 75.1909 521.429 75.4071 521.213C75.6292 520.997 75.7402 520.737 75.7402 520.433V511.422L78.2557 511.431V520.433C78.2557 521.093 78.0921 521.695 77.7649 522.238C77.4376 522.782 76.9994 523.217 76.4501 523.544C75.9009 523.866 75.2902 524.026 74.6183 524.026ZM69.3857 545.009L69.3944 532.431H69.4295V532.414H75.9681C76.6751 532.431 77.2594 532.674 77.721 533.141C78.1885 533.603 78.4281 534.181 78.4398 534.877L78.431 537.068C78.4076 537.746 78.1651 538.309 77.7035 538.759C77.2419 539.209 76.6663 539.44 75.9768 539.452L75.8191 539.355L78.4047 545L74.5043 542.511L71.9538 536.954L71.9099 541.161L69.3857 545.009ZM74.8725 536.971C75.1646 536.96 75.4071 536.857 75.5999 536.665C75.7928 536.472 75.8921 536.232 75.8979 535.946C75.8921 535.642 75.7869 535.391 75.5824 535.192C75.3837 534.993 75.1296 534.888 74.8199 534.877H73.7768L74.7322 536.971H74.8725ZM69.4733 565.982L69.4821 553.414H72.0677L72.0852 562.135L69.4733 565.982ZM78.2557 586.956L73.8996 583.88L73.7155 583.512L73.5402 583.88L69.1841 586.956L72.2956 580.663L69.1841 574.405H72.0589L73.7155 577.788L75.3808 574.422L78.2557 574.431L75.1442 580.663L78.2557 586.956Z" fill="white"/>
</svg>
