<svg width="1440" height="1024" viewBox="0 0 1440 1024" fill="none" xmlns="http://www.w3.org/2000/svg">
<circle cx="841.128" cy="408.446" r="89.4462" fill="#38B7FF"/>
<path d="M556.106 395.725L541.86 409.971H506.246V413.532H548.983V427.778H506.246V450.927L492 436.682V395.725H556.106Z" fill="#38B7FF"/>
<path d="M550.721 420.655V404.629L564.967 390.383V420.655C564.967 423.599 566.011 426.116 568.101 428.205C570.19 430.295 572.707 431.339 575.651 431.339H582.774C585.718 431.339 588.235 430.295 590.324 428.205C592.414 426.116 593.458 423.599 593.458 420.655V395.725H607.704V420.655C607.704 427.541 605.27 433.417 600.403 438.284C595.536 443.152 589.659 445.585 582.774 445.585H575.651C568.766 445.585 562.889 443.152 558.022 438.284C553.155 433.417 550.721 427.541 550.721 420.655ZM636.794 445.585V409.116H609.442V395.44H677.822V409.116H650.47V445.585H636.794ZM680.557 445.585V395.44H694.233V431.909H710.188L746.657 395.44H767.171L717.026 445.585H680.557ZM824.61 445.585V427.351H785.861L799.537 413.675H838.286V445.585H824.61ZM769.906 445.585V395.44H838.286L824.61 409.116H783.582V445.585H769.906ZM841.021 445.585V395.44H854.697V445.585H841.021ZM907.76 445.585H891.567L879.678 429.028L872.166 445.585H882.888L861.663 462.434L867.862 445.585H856.411L864.507 427.715H878.73L857.432 398.175H873.624L881.866 409.627L891.203 398.175H908.124L889.89 420.713L907.76 445.585Z" fill="white"/>
<path d="M912.15 383.918L898.821 393.045L895.111 376.145L876.975 369.962L929.32 357.225L929.83 395.291L912.15 383.918Z" fill="white"/>
<path d="M895.111 376.145L928.087 358.421L912.152 383.916" stroke="#C8C6C6" stroke-width="0.824389"/>
<path d="M926.851 359.657L898.822 392.633" stroke="#C8C6C6" stroke-width="0.824389"/>
</svg>
