<svg width="1440" height="775" viewBox="0 0 1440 775" fill="none" xmlns="http://www.w3.org/2000/svg">
<rect width="1440" height="775" fill="#262222"/>
<circle cx="925.285" cy="61.3728" r="31.0368" transform="rotate(-6.36167 925.285 61.3728)" fill="white"/>
<circle cx="1275" cy="337" r="30.4354" transform="rotate(-19.9704 1275 337)" fill="white"/>
<circle cx="88.0003" cy="239" r="21.9109" transform="rotate(-3.67084 88.0003 239)" fill="white"/>
<circle cx="1149.01" cy="155.835" r="43.7777" transform="rotate(27.87 1149.01 155.835)" fill="white"/>
<circle cx="139.031" cy="78.0311" r="40.7379" transform="rotate(-9.614 139.031 78.0311)" fill="white"/>
<path d="M921.279 42.637C922.573 42.333 923.935 42.0865 925.367 41.8977C926.799 41.7089 928.158 41.7587 929.443 42.0471C930.764 42.3273 931.923 42.9407 932.92 43.8873C933.953 44.8256 934.703 46.2916 935.172 48.285C935.476 49.5791 935.499 50.6992 935.241 51.6454C935.011 52.5484 934.629 53.3577 934.096 54.0734C933.598 54.7809 933.009 55.4174 932.33 55.9829C931.651 56.5484 931.029 57.119 930.463 57.6949C929.932 58.2624 929.505 58.8794 929.182 59.5458C928.885 60.1691 928.836 60.9003 929.033 61.7397C929.148 62.2293 929.317 62.6326 929.539 62.9495C929.788 63.2231 930.067 63.4711 930.378 63.6934L931.257 64.3725C931.568 64.5947 931.834 64.8643 932.056 65.1812C932.305 65.4549 932.487 65.8365 932.602 66.3261C932.733 66.8857 932.638 67.4246 932.317 67.9429C932.031 68.453 931.606 68.9219 931.042 69.3496C930.514 69.7691 929.916 70.1309 929.249 70.4352C928.618 70.7312 928.04 70.9409 927.515 71.0641C926.816 71.2285 926.117 71.3188 925.42 71.335C924.714 71.3163 924.058 71.1937 923.451 70.9672C922.871 70.6975 922.354 70.3024 921.9 69.7818C921.472 69.218 921.147 68.464 920.925 67.5197C920.835 67.135 920.763 66.6721 920.71 66.1311C920.691 65.5818 920.69 65.0285 920.707 64.471C920.724 63.9135 920.766 63.3869 920.834 62.8912C920.894 62.3605 920.992 61.9131 921.128 61.549C921.41 60.7077 921.825 59.9642 922.375 59.3185C922.916 58.6377 923.44 57.9611 923.946 57.2886C924.452 56.6161 924.863 55.9291 925.178 55.2277C925.493 54.5264 925.548 53.7385 925.342 52.8642C925.219 52.3396 924.954 51.996 924.546 51.8333C924.139 51.6707 923.691 51.6469 923.201 51.7619C922.397 51.9509 921.662 52.4372 920.998 53.2208C920.36 53.9611 919.721 54.7755 919.081 55.664C918.467 56.5093 917.828 57.3237 917.164 58.1072C916.491 58.8558 915.7 59.3369 914.79 59.5506C914.196 59.6903 913.656 59.6696 913.17 59.4884C912.72 59.299 912.305 59.0273 911.927 58.6734C911.584 58.3112 911.298 57.8802 911.07 57.3802C910.841 56.8803 910.67 56.3855 910.555 55.8958C910.185 54.322 910.161 52.9623 910.482 51.8166C910.838 50.6626 911.414 49.4203 912.208 48.0896C913.19 46.4566 914.492 45.2464 916.116 44.459C917.774 43.6634 919.495 43.0561 921.279 42.637ZM922.088 78.5945C921.874 77.6852 921.921 76.8624 922.228 76.126C922.569 75.3815 923.045 74.7347 923.654 74.1856C924.29 73.5934 925.007 73.1112 925.805 72.7391C926.595 72.332 927.34 72.0463 928.039 71.882C928.774 71.7094 929.568 71.6336 930.422 71.6544C931.302 71.632 932.124 71.7526 932.887 72.0162C933.677 72.2366 934.355 72.6122 934.923 73.1431C935.526 73.6658 935.934 74.3818 936.147 75.2911C936.361 76.2004 936.301 77.0448 935.968 77.8244C935.661 78.5607 935.19 79.225 934.554 79.8173C933.945 80.3663 933.241 80.8269 932.443 81.199C931.679 81.5629 930.931 81.8311 930.196 82.0037C929.462 82.1762 928.668 82.2521 927.814 82.2312C926.968 82.2454 926.151 82.1423 925.361 81.9219C924.598 81.6584 923.915 81.2652 923.312 80.7425C922.71 80.2199 922.302 79.5038 922.088 78.5945Z" fill="black"/>
<path d="M1266.86 320.074C1268.03 319.486 1269.27 318.936 1270.59 318.426C1271.91 317.916 1273.22 317.65 1274.51 317.628C1275.83 317.59 1277.08 317.908 1278.25 318.58C1279.45 319.236 1280.5 320.46 1281.41 322.252C1281.99 323.415 1282.28 324.477 1282.25 325.438C1282.24 326.352 1282.06 327.212 1281.72 328.017C1281.41 328.806 1280.99 329.548 1280.47 330.244C1279.96 330.94 1279.5 331.627 1279.09 332.307C1278.71 332.97 1278.45 333.657 1278.3 334.366C1278.16 335.029 1278.28 335.737 1278.66 336.492C1278.88 336.932 1279.14 337.277 1279.42 337.528C1279.72 337.731 1280.05 337.903 1280.39 338.043L1281.39 338.488C1281.73 338.628 1282.05 338.823 1282.34 339.074C1282.64 339.278 1282.9 339.599 1283.12 340.039C1283.37 340.542 1283.41 341.078 1283.22 341.646C1283.07 342.198 1282.77 342.743 1282.33 343.281C1281.92 343.803 1281.44 344.285 1280.87 344.729C1280.34 345.157 1279.84 345.49 1279.37 345.729C1278.74 346.047 1278.09 346.294 1277.43 346.47C1276.75 346.615 1276.1 346.65 1275.47 346.574C1274.85 346.451 1274.27 346.194 1273.72 345.802C1273.18 345.364 1272.7 344.72 1272.27 343.871C1272.09 343.525 1271.92 343.101 1271.74 342.597C1271.6 342.078 1271.47 341.551 1271.36 341.016C1271.24 340.481 1271.16 339.969 1271.11 339.481C1271.05 338.961 1271.04 338.512 1271.08 338.134C1271.16 337.267 1271.38 336.462 1271.76 335.72C1272.11 334.946 1272.46 334.181 1272.79 333.423C1273.11 332.665 1273.35 331.916 1273.48 331.175C1273.62 330.433 1273.49 329.67 1273.09 328.884C1272.86 328.412 1272.52 328.146 1272.1 328.085C1271.67 328.024 1271.24 328.105 1270.8 328.327C1270.08 328.693 1269.49 329.326 1269.04 330.226C1268.6 331.079 1268.18 332.003 1267.77 332.997C1267.38 333.944 1266.96 334.868 1266.51 335.768C1266.04 336.637 1265.4 337.278 1264.58 337.691C1264.05 337.962 1263.53 338.067 1263.02 338.006C1262.55 337.929 1262.09 337.766 1261.65 337.516C1261.24 337.25 1260.87 336.905 1260.53 336.481C1260.2 336.057 1259.92 335.625 1259.7 335.185C1258.98 333.771 1258.65 332.48 1258.69 331.314C1258.76 330.132 1259.02 328.815 1259.48 327.364C1260.03 325.581 1261 324.127 1262.36 323.002C1263.76 321.861 1265.26 320.885 1266.86 320.074ZM1275.93 354.158C1275.52 353.341 1275.37 352.546 1275.49 351.773C1275.65 350.985 1275.95 350.259 1276.41 349.595C1276.87 348.884 1277.45 348.259 1278.12 347.72C1278.78 347.15 1279.42 346.705 1280.05 346.387C1280.71 346.053 1281.45 345.798 1282.27 345.621C1283.11 345.396 1283.92 345.322 1284.7 345.397C1285.51 345.425 1286.24 345.626 1286.91 346.001C1287.6 346.36 1288.15 346.948 1288.57 347.766C1288.98 348.583 1289.12 349.402 1288.98 350.222C1288.86 350.994 1288.56 351.736 1288.09 352.447C1287.64 353.111 1287.07 353.712 1286.4 354.251C1285.76 354.774 1285.1 355.203 1284.44 355.537C1283.78 355.871 1283.04 356.126 1282.23 356.303C1281.42 356.512 1280.62 356.602 1279.82 356.574C1279.03 356.499 1278.29 356.282 1277.59 355.923C1276.9 355.564 1276.34 354.976 1275.93 354.158Z" fill="black"/>
<path d="M85.8491 225.94C86.7717 225.768 87.741 225.64 88.7569 225.554C89.7729 225.468 90.7294 225.548 91.6264 225.794C92.5484 226.036 93.3454 226.507 94.0173 227.207C94.7143 227.903 95.1948 228.962 95.4591 230.383C95.6306 231.306 95.6099 232.096 95.397 232.755C95.2044 233.384 94.9083 233.942 94.5087 234.429C94.1341 234.912 93.6979 235.341 93.2004 235.717C92.7028 236.094 92.2449 236.475 91.8268 236.863C91.4336 237.245 91.112 237.666 90.862 238.126C90.6323 238.555 90.5731 239.069 90.6843 239.668C90.7492 240.017 90.8547 240.307 91.0008 240.538C91.1672 240.739 91.3563 240.923 91.5679 241.09L92.1654 241.598C92.377 241.765 92.5559 241.964 92.702 242.195C92.8684 242.396 92.984 242.671 93.0489 243.02C93.1231 243.419 93.0384 243.796 92.7948 244.151C92.5761 244.501 92.2609 244.818 91.8492 245.101C91.4624 245.379 91.0289 245.614 90.5487 245.807C90.0935 245.995 89.6789 246.123 89.3048 246.193C88.8061 246.286 88.3106 246.326 87.8183 246.315C87.3214 246.278 86.8627 246.17 86.4423 245.99C86.0422 245.781 85.6906 245.485 85.3873 245.103C85.1044 244.691 84.9004 244.148 84.7752 243.475C84.7242 243.201 84.6889 242.872 84.6692 242.489C84.6745 242.101 84.6922 241.71 84.7224 241.318C84.7526 240.925 84.7999 240.555 84.8644 240.208C84.9241 239.836 85.008 239.524 85.1158 239.271C85.3427 238.687 85.6605 238.177 86.0694 237.74C86.4736 237.278 86.8654 236.818 87.2447 236.36C87.624 235.903 87.9363 235.432 88.1816 234.948C88.427 234.464 88.4917 233.91 88.3758 233.287C88.3063 232.912 88.1306 232.661 87.8488 232.533C87.567 232.405 87.2516 232.373 86.9025 232.438C86.329 232.545 85.7948 232.863 85.3001 233.394C84.8257 233.895 84.3481 234.448 83.8673 235.053C83.4068 235.629 82.9293 236.182 82.4345 236.713C81.9352 237.218 81.3614 237.531 80.7131 237.652C80.2892 237.731 79.9091 237.698 79.5728 237.554C79.2614 237.406 78.9781 237.201 78.723 236.938C78.4928 236.672 78.3056 236.358 78.1612 235.998C78.0169 235.638 77.9123 235.283 77.8474 234.934C77.6388 233.812 77.6667 232.853 77.9313 232.055C78.2207 231.253 78.6676 230.396 79.272 229.484C80.0184 228.365 80.9771 227.555 82.1479 227.054C83.3437 226.547 84.5774 226.176 85.8491 225.94ZM85.2282 251.323C85.1077 250.675 85.1678 250.096 85.4085 249.587C85.6742 249.074 86.0308 248.633 86.4785 248.266C86.9466 247.87 87.4682 247.553 88.0435 247.317C88.6141 247.057 89.1488 246.88 89.6475 246.787C90.1711 246.69 90.7336 246.663 91.3349 246.706C91.9565 246.719 92.5321 246.831 93.0614 247.042C93.6111 247.224 94.0773 247.511 94.46 247.905C94.8676 248.293 95.1317 248.812 95.2522 249.46C95.3727 250.108 95.3025 250.702 95.0415 251.24C94.8008 251.749 94.4464 252.202 93.9784 252.599C93.5307 252.966 93.0192 253.267 92.4439 253.503C91.8936 253.735 91.3566 253.899 90.833 253.996C90.3093 254.094 89.7468 254.121 89.1455 254.078C88.5488 254.06 87.9756 253.96 87.4259 253.778C86.8965 253.567 86.428 253.267 86.0204 252.879C85.6128 252.49 85.3488 251.972 85.2282 251.323Z" fill="black"/>
<path d="M1158.97 131.417C1160.72 132.09 1162.51 132.884 1164.33 133.8C1166.14 134.715 1167.69 135.852 1168.96 137.208C1170.28 138.583 1171.14 140.218 1171.55 142.113C1172.01 144.026 1171.73 146.331 1170.69 149.028C1170.02 150.778 1169.16 152.103 1168.11 153.002C1167.12 153.872 1166.03 154.513 1164.84 154.924C1163.7 155.354 1162.51 155.63 1161.27 155.75C1160.03 155.871 1158.85 156.042 1157.73 156.265C1156.66 156.506 1155.68 156.886 1154.77 157.407C1153.93 157.899 1153.29 158.712 1152.86 159.847C1152.6 160.51 1152.48 161.114 1152.49 161.659C1152.56 162.176 1152.69 162.687 1152.87 163.193L1153.36 164.682C1153.55 165.188 1153.64 165.713 1153.65 166.259C1153.72 166.776 1153.63 167.365 1153.38 168.027C1153.09 168.784 1152.55 169.338 1151.76 169.687C1151.03 170.055 1150.16 170.265 1149.16 170.316C1148.21 170.386 1147.23 170.333 1146.21 170.159C1145.24 170.003 1144.4 169.789 1143.69 169.517C1142.74 169.153 1141.85 168.704 1141.03 168.17C1140.22 167.588 1139.55 166.925 1139.03 166.179C1138.56 165.404 1138.27 164.533 1138.16 163.566C1138.1 162.569 1138.32 161.432 1138.81 160.154C1139.01 159.634 1139.3 159.037 1139.67 158.364C1140.08 157.709 1140.52 157.063 1140.98 156.426C1141.44 155.789 1141.91 155.209 1142.38 154.684C1142.87 154.113 1143.34 153.669 1143.79 153.352C1144.78 152.595 1145.86 152.058 1147.01 151.741C1148.18 151.376 1149.33 151.003 1150.46 150.62C1151.58 150.238 1152.6 149.762 1153.53 149.194C1154.45 148.626 1155.14 147.751 1155.59 146.568C1155.87 145.859 1155.83 145.248 1155.48 144.735C1155.14 144.222 1154.63 143.838 1153.97 143.584C1152.88 143.166 1151.64 143.15 1150.24 143.537C1148.91 143.894 1147.52 144.337 1146.07 144.865C1144.68 145.364 1143.29 145.807 1141.9 146.193C1140.52 146.532 1139.21 146.466 1137.98 145.993C1137.18 145.684 1136.57 145.232 1136.14 144.635C1135.77 144.057 1135.5 143.411 1135.34 142.698C1135.23 142.003 1135.24 141.274 1135.37 140.51C1135.5 139.746 1135.69 139.033 1135.94 138.37C1136.76 136.242 1137.81 134.637 1139.1 133.556C1140.43 132.493 1142.08 131.5 1144.07 130.579C1146.51 129.453 1148.99 129.076 1151.5 129.446C1154.07 129.834 1156.56 130.491 1158.97 131.417ZM1131.38 173.992C1131.86 172.762 1132.56 171.84 1133.5 171.224C1134.49 170.627 1135.56 170.25 1136.71 170.093C1137.92 169.907 1139.14 169.914 1140.36 170.113C1141.61 170.265 1142.7 170.523 1143.65 170.886C1144.64 171.268 1145.63 171.81 1146.61 172.511C1147.65 173.184 1148.52 173.976 1149.2 174.889C1149.94 175.773 1150.44 176.75 1150.68 177.819C1150.96 178.907 1150.87 180.066 1150.4 181.296C1149.93 182.526 1149.19 183.463 1148.18 184.107C1147.24 184.722 1146.16 185.123 1144.95 185.309C1143.8 185.466 1142.62 185.445 1141.39 185.246C1140.21 185.064 1139.13 184.783 1138.13 184.401C1137.14 184.02 1136.15 183.478 1135.17 182.777C1134.18 182.122 1133.31 181.353 1132.56 180.469C1131.88 179.557 1131.39 178.556 1131.11 177.469C1130.82 176.381 1130.91 175.222 1131.38 173.992Z" fill="black"/>
<path d="M132.314 53.5339C133.987 53.0391 135.755 52.6147 137.617 52.2607C139.479 51.9066 141.263 51.8707 142.97 52.1529C144.721 52.4217 146.286 53.1392 147.663 54.3054C149.086 55.4582 150.178 57.3234 150.941 59.9009C151.435 61.574 151.549 63.0401 151.282 64.2992C151.047 65.4997 150.607 66.5888 149.962 67.5664C149.362 68.5306 148.638 69.4085 147.791 70.2001C146.943 70.9917 146.17 71.7859 145.471 72.5826C144.817 73.366 144.304 74.2063 143.93 75.1037C143.588 75.9424 143.577 76.9044 143.898 77.9897C144.086 78.6228 144.336 79.1387 144.651 79.5374C144.998 79.8775 145.382 80.1816 145.806 80.4497L147.009 81.2742C147.432 81.5424 147.801 81.8758 148.116 82.2745C148.462 82.6146 148.729 83.1012 148.916 83.7342C149.13 84.4578 149.046 85.1711 148.664 85.8742C148.327 86.5639 147.805 87.21 147.098 87.8125C146.437 88.4016 145.68 88.9203 144.829 89.3686C144.024 89.8036 143.282 90.1214 142.603 90.322C141.699 90.5894 140.791 90.7597 139.878 90.833C138.952 90.8609 138.083 90.7491 137.271 90.4975C136.491 90.1874 135.783 89.7081 135.149 89.0597C134.547 88.3527 134.065 87.3888 133.704 86.1679C133.557 85.6705 133.428 85.0693 133.318 84.3642C133.253 83.6458 133.211 82.9207 133.191 82.1889C133.171 81.4572 133.187 80.7639 133.24 80.1092C133.279 79.4093 133.373 78.8157 133.524 78.3285C133.831 77.205 134.321 76.1997 134.993 75.3126C135.651 74.3802 136.287 73.4545 136.901 72.5355C137.514 71.6165 138.001 70.6857 138.362 69.7431C138.722 68.8006 138.735 67.764 138.401 66.6336C138.2 65.9553 137.827 65.5247 137.281 65.3419C136.735 65.1591 136.146 65.1613 135.513 65.3485C134.473 65.6561 133.546 66.3481 132.734 67.4244C131.953 68.4421 131.176 69.5569 130.404 70.7689C129.663 71.9223 128.886 73.0371 128.073 74.1134C127.247 75.1445 126.247 75.8339 125.071 76.1816C124.302 76.4089 123.593 76.4219 122.943 76.2207C122.339 76.006 121.776 75.6809 121.253 75.2452C120.776 74.7962 120.37 74.2526 120.033 73.6144C119.697 72.9763 119.435 72.3406 119.248 71.7076C118.646 69.6727 118.513 67.8926 118.849 66.3673C119.23 64.8286 119.892 63.1578 120.834 61.3548C121.998 59.1416 123.615 57.4587 125.684 56.3061C127.798 55.14 130.008 54.216 132.314 53.5339ZM136.052 100.594C135.705 99.4186 135.704 98.3369 136.052 97.3491C136.444 96.3479 137.019 95.4649 137.776 94.7C138.565 93.8766 139.469 93.1913 140.487 92.6443C141.492 92.052 142.447 91.6221 143.351 91.3547C144.301 91.0739 145.336 90.9153 146.456 90.879C147.608 90.7842 148.694 90.881 149.714 91.1696C150.765 91.3995 151.683 91.8412 152.466 92.4947C153.295 93.1348 153.883 94.0427 154.231 95.2184C154.578 96.3941 154.563 97.5051 154.184 98.5515C153.836 99.5393 153.268 100.445 152.479 101.268C151.722 102.033 150.834 102.689 149.816 103.236C148.842 103.77 147.881 104.177 146.932 104.458C145.982 104.739 144.947 104.897 143.827 104.934C142.72 105.015 141.641 104.941 140.589 104.711C139.569 104.422 138.645 103.958 137.817 103.318C136.988 102.678 136.4 101.77 136.052 100.594Z" fill="black"/>
</svg>
