<svg width="1500" height="300" viewBox="0 0 1500 300" fill="none" xmlns="http://www.w3.org/2000/svg">
<g clip-path="url(#clip0_182_2)">
<rect opacity="0.8" y="150" width="290" height="174" rx="12" fill="white"/>
<rect x="1218" y="-51" width="282" height="174" rx="12" fill="white"/>
<rect opacity="0.8" x="995" y="-24" width="282" height="174" rx="12" fill="white"/>
<rect x="278" y="247" width="92" height="65" rx="12" fill="white"/>
<path d="M1451.9 265.482C1451.8 265.334 1451.67 265.212 1451.51 265.128C1451.35 265.044 1451.18 265 1451 265C1450.82 265 1450.65 265.044 1450.49 265.128C1450.33 265.212 1450.2 265.334 1450.1 265.482L1443.6 275.232C1443.49 275.395 1443.43 275.585 1443.42 275.781C1443.41 275.976 1443.45 276.171 1443.55 276.344C1443.64 276.517 1443.78 276.661 1443.94 276.762C1444.11 276.863 1444.3 276.916 1444.5 276.916H1444.71L1440.33 283.925C1440.23 284.089 1440.17 284.277 1440.17 284.471C1440.16 284.664 1440.21 284.855 1440.3 285.024C1440.4 285.194 1440.53 285.334 1440.7 285.433C1440.87 285.531 1441.06 285.583 1441.25 285.583H1441.66L1438.11 292.681C1438.03 292.846 1437.99 293.029 1438 293.214C1438.01 293.398 1438.06 293.578 1438.16 293.735C1438.26 293.892 1438.39 294.022 1438.56 294.112C1438.72 294.202 1438.9 294.249 1439.08 294.249H1448.83V299.666H1453.17V294.249H1462.92C1463.1 294.249 1463.28 294.202 1463.44 294.112C1463.61 294.022 1463.74 293.892 1463.84 293.735C1463.94 293.578 1463.99 293.398 1464 293.214C1464.01 293.029 1463.97 292.846 1463.89 292.681L1460.34 285.583H1460.75C1460.95 285.583 1461.14 285.531 1461.3 285.433C1461.47 285.334 1461.61 285.194 1461.7 285.024C1461.79 284.855 1461.84 284.664 1461.84 284.471C1461.83 284.277 1461.77 284.089 1461.67 283.925L1457.29 276.916H1457.5C1457.7 276.916 1457.89 276.863 1458.06 276.762C1458.22 276.661 1458.36 276.517 1458.45 276.344C1458.55 276.171 1458.59 275.976 1458.58 275.781C1458.57 275.585 1458.51 275.395 1458.4 275.232L1451.9 265.482Z" fill="white"/>
<path d="M1425.9 265.482C1425.8 265.334 1425.67 265.212 1425.51 265.128C1425.35 265.044 1425.18 265 1425 265C1424.82 265 1424.65 265.044 1424.49 265.128C1424.33 265.212 1424.2 265.334 1424.1 265.482L1417.6 275.232C1417.49 275.395 1417.43 275.585 1417.42 275.781C1417.41 275.976 1417.45 276.171 1417.55 276.344C1417.64 276.517 1417.78 276.661 1417.94 276.762C1418.11 276.863 1418.3 276.916 1418.5 276.916H1418.71L1414.33 283.925C1414.23 284.089 1414.17 284.277 1414.17 284.471C1414.16 284.664 1414.21 284.855 1414.3 285.024C1414.4 285.194 1414.53 285.334 1414.7 285.433C1414.87 285.531 1415.06 285.583 1415.25 285.583H1415.66L1412.11 292.681C1412.03 292.846 1411.99 293.029 1412 293.214C1412.01 293.398 1412.06 293.578 1412.16 293.735C1412.26 293.892 1412.39 294.022 1412.56 294.112C1412.72 294.202 1412.9 294.249 1413.08 294.249H1422.83V299.666H1427.17V294.249H1436.92C1437.1 294.249 1437.28 294.202 1437.44 294.112C1437.61 294.022 1437.74 293.892 1437.84 293.735C1437.94 293.578 1437.99 293.398 1438 293.214C1438.01 293.029 1437.97 292.846 1437.89 292.681L1434.34 285.583H1434.75C1434.95 285.583 1435.14 285.531 1435.3 285.433C1435.47 285.334 1435.61 285.194 1435.7 285.024C1435.79 284.855 1435.84 284.664 1435.84 284.471C1435.83 284.277 1435.77 284.089 1435.67 283.925L1431.29 276.916H1431.5C1431.7 276.916 1431.89 276.863 1432.06 276.762C1432.22 276.661 1432.36 276.517 1432.45 276.344C1432.55 276.171 1432.59 275.976 1432.58 275.781C1432.57 275.585 1432.51 275.395 1432.4 275.232L1425.9 265.482Z" fill="white"/>
<path d="M1399.9 265.482C1399.8 265.334 1399.67 265.212 1399.51 265.128C1399.35 265.044 1399.18 265 1399 265C1398.82 265 1398.65 265.044 1398.49 265.128C1398.33 265.212 1398.2 265.334 1398.1 265.482L1391.6 275.232C1391.49 275.395 1391.43 275.585 1391.42 275.781C1391.41 275.976 1391.45 276.171 1391.55 276.344C1391.64 276.517 1391.78 276.661 1391.94 276.762C1392.11 276.863 1392.3 276.916 1392.5 276.916H1392.71L1388.33 283.925C1388.23 284.089 1388.17 284.277 1388.17 284.471C1388.16 284.664 1388.21 284.855 1388.3 285.024C1388.4 285.194 1388.53 285.334 1388.7 285.433C1388.87 285.531 1389.06 285.583 1389.25 285.583H1389.66L1386.11 292.681C1386.03 292.846 1385.99 293.029 1386 293.214C1386.01 293.398 1386.06 293.578 1386.16 293.735C1386.26 293.892 1386.39 294.022 1386.56 294.112C1386.72 294.202 1386.9 294.249 1387.08 294.249H1396.83V299.666H1401.17V294.249H1410.92C1411.1 294.249 1411.28 294.202 1411.44 294.112C1411.61 294.022 1411.74 293.892 1411.84 293.735C1411.94 293.578 1411.99 293.398 1412 293.214C1412.01 293.029 1411.97 292.846 1411.89 292.681L1408.34 285.583H1408.75C1408.95 285.583 1409.14 285.531 1409.3 285.433C1409.47 285.334 1409.61 285.194 1409.7 285.024C1409.79 284.855 1409.84 284.664 1409.84 284.471C1409.83 284.277 1409.77 284.089 1409.67 283.925L1405.29 276.916H1405.5C1405.7 276.916 1405.89 276.863 1406.06 276.762C1406.22 276.661 1406.36 276.517 1406.45 276.344C1406.55 276.171 1406.59 275.976 1406.58 275.781C1406.57 275.585 1406.51 275.395 1406.4 275.232L1399.9 265.482Z" fill="white"/>
<path d="M1373.9 265.482C1373.8 265.334 1373.67 265.212 1373.51 265.128C1373.35 265.044 1373.18 265 1373 265C1372.82 265 1372.65 265.044 1372.49 265.128C1372.33 265.212 1372.2 265.334 1372.1 265.482L1365.6 275.232C1365.49 275.395 1365.43 275.585 1365.42 275.781C1365.41 275.976 1365.45 276.171 1365.55 276.344C1365.64 276.517 1365.78 276.661 1365.94 276.762C1366.11 276.863 1366.3 276.916 1366.5 276.916H1366.71L1362.33 283.925C1362.23 284.089 1362.17 284.277 1362.17 284.471C1362.16 284.664 1362.21 284.855 1362.3 285.024C1362.4 285.194 1362.53 285.334 1362.7 285.433C1362.87 285.531 1363.06 285.583 1363.25 285.583H1363.66L1360.11 292.681C1360.03 292.846 1359.99 293.029 1360 293.214C1360.01 293.398 1360.06 293.578 1360.16 293.735C1360.26 293.892 1360.39 294.022 1360.56 294.112C1360.72 294.202 1360.9 294.249 1361.08 294.249H1370.83V299.666H1375.17V294.249H1384.92C1385.1 294.249 1385.28 294.202 1385.44 294.112C1385.61 294.022 1385.74 293.892 1385.84 293.735C1385.94 293.578 1385.99 293.398 1386 293.214C1386.01 293.029 1385.97 292.846 1385.89 292.681L1382.34 285.583H1382.75C1382.95 285.583 1383.14 285.531 1383.3 285.433C1383.47 285.334 1383.61 285.194 1383.7 285.024C1383.79 284.855 1383.84 284.664 1383.84 284.471C1383.83 284.277 1383.77 284.089 1383.67 283.925L1379.29 276.916H1379.5C1379.7 276.916 1379.89 276.863 1380.06 276.762C1380.22 276.661 1380.36 276.517 1380.45 276.344C1380.55 276.171 1380.59 275.976 1380.58 275.781C1380.57 275.585 1380.51 275.395 1380.4 275.232L1373.9 265.482Z" fill="white"/>
<path d="M1347.9 265.482C1347.8 265.334 1347.67 265.212 1347.51 265.128C1347.35 265.044 1347.18 265 1347 265C1346.82 265 1346.65 265.044 1346.49 265.128C1346.33 265.212 1346.2 265.334 1346.1 265.482L1339.6 275.232C1339.49 275.395 1339.43 275.585 1339.42 275.781C1339.41 275.976 1339.45 276.171 1339.55 276.344C1339.64 276.517 1339.78 276.661 1339.94 276.762C1340.11 276.863 1340.3 276.916 1340.5 276.916H1340.71L1336.33 283.925C1336.23 284.089 1336.17 284.277 1336.17 284.471C1336.16 284.664 1336.21 284.855 1336.3 285.024C1336.4 285.194 1336.53 285.334 1336.7 285.433C1336.87 285.531 1337.06 285.583 1337.25 285.583H1337.66L1334.11 292.681C1334.03 292.846 1333.99 293.029 1334 293.214C1334.01 293.398 1334.06 293.578 1334.16 293.735C1334.26 293.892 1334.39 294.022 1334.56 294.112C1334.72 294.202 1334.9 294.249 1335.08 294.249H1344.83V299.666H1349.17V294.249H1358.92C1359.1 294.249 1359.28 294.202 1359.44 294.112C1359.61 294.022 1359.74 293.892 1359.84 293.735C1359.94 293.578 1359.99 293.398 1360 293.214C1360.01 293.029 1359.97 292.846 1359.89 292.681L1356.34 285.583H1356.75C1356.95 285.583 1357.14 285.531 1357.3 285.433C1357.47 285.334 1357.61 285.194 1357.7 285.024C1357.79 284.855 1357.84 284.664 1357.84 284.471C1357.83 284.277 1357.77 284.089 1357.67 283.925L1353.29 276.916H1353.5C1353.7 276.916 1353.89 276.863 1354.06 276.762C1354.22 276.661 1354.36 276.517 1354.45 276.344C1354.55 276.171 1354.59 275.976 1354.58 275.781C1354.57 275.585 1354.51 275.395 1354.4 275.232L1347.9 265.482Z" fill="white"/>
</g>
<defs>
<clipPath id="clip0_182_2">
<rect width="1500" height="300" fill="white"/>
</clipPath>
</defs>
</svg>
