<svg width="461" height="398" viewBox="0 0 461 398" fill="none" xmlns="http://www.w3.org/2000/svg">
<path d="M321.089 178.954L319.466 180.577L321.089 182.2L362.954 224.065C369.964 231.075 369.964 242.496 362.954 249.506L343.694 268.767C338.237 274.223 326.737 277.252 318.252 268.767L276.387 226.901L274.764 225.278L273.141 226.901L225.562 274.481H190.794V239.712L238.274 192.132L239.894 190.509L238.272 188.888L196.407 147.022C189.396 140.012 189.396 128.591 196.407 121.581L215.667 102.321C222.677 95.3104 234.098 95.3104 241.108 102.321L241.11 102.323L283.077 144.188L284.7 145.807L286.321 144.186L300.613 129.894L335.38 164.662L321.089 178.954ZM249.524 177.741L251.151 179.365L252.772 177.735L271.931 158.475L273.545 156.852L271.927 155.233L257.228 140.535L255.605 138.912L253.982 140.535L243.542 150.975L232.488 139.921L242.841 129.481L244.45 127.858L242.834 126.242L229.96 113.368L228.333 111.741L226.71 113.372L207.551 132.632L205.935 134.257L207.557 135.876L249.524 177.741ZM329.401 257.719L331.024 259.342L332.647 257.719L351.907 238.459L353.53 236.836L351.907 235.213L339.033 222.34L337.41 220.717L335.787 222.34L325.347 232.779L314.3 221.732L324.74 211.292L326.363 209.67L324.74 208.047L310.042 193.348L308.419 191.725L306.796 193.348L287.535 212.608L285.912 214.231L287.535 215.854L329.401 257.719ZM366.402 133.64L366.4 133.642L349.473 150.569L314.706 115.802L331.633 98.8743C332.712 97.7954 334.586 96.8311 336.672 96.6489C338.681 96.4733 340.828 97.0224 342.68 98.8743L366.4 122.595L366.402 122.596C367.128 123.321 367.704 124.182 368.097 125.129C368.49 126.077 368.693 127.092 368.693 128.118C368.693 129.144 368.49 130.16 368.097 131.107C367.704 132.055 367.128 132.915 366.402 133.64Z" fill="#38B7FF" stroke="black" stroke-width="4.5905"/>
<path d="M207.614 227.812L192.499 273.156C192.258 273.883 191.845 274.541 191.295 275.074C190.745 275.607 190.075 276 189.341 276.219L96.6843 303.759C95.8495 304.007 94.9628 304.021 94.1205 303.8C93.2782 303.579 92.5127 303.131 91.9073 302.505C91.3018 301.879 90.8797 301.099 90.6867 300.25C90.4937 299.401 90.5374 298.515 90.8129 297.689L120.9 207.444C121.115 206.796 121.468 206.202 121.933 205.703C122.399 205.203 122.966 204.809 123.597 204.548L166.34 186.95C167.208 186.591 168.164 186.497 169.086 186.681C170.008 186.865 170.855 187.317 171.521 187.981L206.463 222.932C207.09 223.558 207.53 224.346 207.733 225.208C207.936 226.07 207.895 226.972 207.614 227.812ZM93.5344 300.76L144.028 250.266Z" fill="#38B7FF"/>
<path d="M93.5344 300.76L144.028 250.266M207.614 227.812L192.499 273.156C192.258 273.883 191.845 274.541 191.295 275.074C190.745 275.607 190.075 276 189.341 276.219L96.6843 303.759C95.8495 304.007 94.9628 304.021 94.1205 303.8C93.2782 303.579 92.5127 303.131 91.9073 302.505C91.3018 301.879 90.8797 301.099 90.6867 300.25C90.4937 299.401 90.5374 298.515 90.8129 297.689L120.9 207.444C121.115 206.796 121.468 206.202 121.933 205.703C122.399 205.203 122.966 204.809 123.597 204.548L166.34 186.95C167.208 186.591 168.164 186.497 169.086 186.681C170.008 186.865 170.855 187.317 171.521 187.981L206.463 222.932C207.09 223.558 207.53 224.346 207.733 225.208C207.936 226.07 207.895 226.972 207.614 227.812Z" stroke="black" stroke-width="4.5905" stroke-linecap="round" stroke-linejoin="round"/>
<path d="M208.547 225.019L230.985 202.573C233.96 199.597 235.631 195.561 235.631 191.353C235.631 187.146 233.96 183.11 230.985 180.134L214.164 163.298C212.691 161.824 210.941 160.654 209.016 159.856C207.09 159.058 205.026 158.648 202.941 158.648C200.857 158.648 198.793 159.058 196.867 159.856C194.942 160.654 193.192 161.824 191.718 163.298L169.28 185.744M160.854 233.429C159.748 232.324 158.436 231.448 156.992 230.85C155.548 230.252 154 229.945 152.437 229.945C150.874 229.945 149.326 230.253 147.882 230.852C146.438 231.45 145.126 232.328 144.021 233.433C142.916 234.539 142.04 235.851 141.442 237.295C140.844 238.739 140.537 240.287 140.537 241.85C140.537 243.413 140.846 244.961 141.444 246.405C142.043 247.849 142.92 249.161 144.025 250.266C146.258 252.497 149.286 253.751 152.442 253.75C155.599 253.749 158.626 252.494 160.858 250.262C163.089 248.029 164.343 245.001 164.342 241.845C164.341 238.688 163.087 235.661 160.854 233.429Z" fill="#38B7FF"/>
<path d="M208.547 225.019L230.985 202.573C233.96 199.597 235.631 195.561 235.631 191.353C235.631 187.146 233.96 183.11 230.985 180.134L214.164 163.298C212.691 161.824 210.941 160.654 209.016 159.856C207.09 159.058 205.026 158.648 202.941 158.648C200.857 158.648 198.793 159.058 196.867 159.856C194.942 160.654 193.192 161.824 191.718 163.298L169.28 185.744M160.854 233.429C159.748 232.324 158.436 231.448 156.992 230.85C155.548 230.252 154 229.945 152.437 229.945C150.874 229.945 149.326 230.253 147.882 230.852C146.438 231.45 145.126 232.328 144.021 233.433C142.916 234.539 142.04 235.851 141.442 237.295C140.844 238.739 140.537 240.287 140.537 241.85C140.537 243.413 140.846 244.961 141.444 246.405C142.043 247.849 142.92 249.161 144.025 250.266C146.258 252.497 149.286 253.751 152.442 253.75C155.599 253.749 158.626 252.494 160.858 250.262C163.089 248.029 164.343 245.001 164.342 241.845C164.341 238.688 163.087 235.661 160.854 233.429Z" stroke="black" stroke-width="4.5905" stroke-linecap="round" stroke-linejoin="round"/>
</svg>
