<svg width="330" height="300" viewBox="0 0 330 300" fill="none" xmlns="http://www.w3.org/2000/svg">
<path d="M179.515 90.4189H204.653V186.106H212.6V208H172.865V186.106H180.488V112.313H170.757L179.515 90.4189Z" fill="black"/>
<path d="M113 129V136.18C113 156.044 123.578 173.42 139.326 183.088V205.585H211.125V196.012C211.125 183.28 185.613 176.866 172.832 176.866H171.636C148.899 176.866 129.753 157.72 129.753 136.18V129M172.832 129C167.754 129 162.884 131.017 159.294 134.608C155.703 138.198 153.686 143.068 153.686 148.146C153.686 153.224 155.703 158.094 159.294 161.685C162.884 165.275 167.754 167.293 172.832 167.293C177.91 167.293 182.78 165.275 186.371 161.685C189.961 158.094 191.979 153.224 191.979 148.146C191.979 143.068 189.961 138.198 186.371 134.608C182.78 131.017 177.91 129 172.832 129Z" fill="#68F512"/>
</svg>
