<svg width="330" height="300" viewBox="0 0 330 300" fill="none" xmlns="http://www.w3.org/2000/svg">
<path d="M175.224 81.6H197.544V166.56H204.6V186H169.32V166.56H176.088V101.04H167.448L175.224 81.6Z" fill="black"/>
<path d="M121 118V124.375C121 142.013 130.393 157.44 144.375 166.025V186H208.125V177.5C208.125 166.195 185.473 160.5 174.125 160.5H173.062C152.875 160.5 135.875 143.5 135.875 124.375V118M174.125 118C169.616 118 165.292 119.791 162.104 122.979C158.916 126.167 157.125 130.491 157.125 135C157.125 139.509 158.916 143.833 162.104 147.021C165.292 150.209 169.616 152 174.125 152C178.634 152 182.958 150.209 186.146 147.021C189.334 143.833 191.125 139.509 191.125 135C191.125 130.491 189.334 126.167 186.146 122.979C182.958 119.791 178.634 118 174.125 118Z" fill="#68F512"/>
</svg>
