<svg width="330" height="300" viewBox="0 0 330 300" fill="none" xmlns="http://www.w3.org/2000/svg">
<path d="M178 93C181.031 93 183.938 94.2041 186.081 96.3474C188.224 98.4906 189.429 101.398 189.429 104.429C189.429 107.46 188.224 110.367 186.081 112.51C183.938 114.653 181.031 115.857 178 115.857C174.969 115.857 172.062 114.653 169.919 112.51C167.776 110.367 166.571 107.46 166.571 104.429C166.571 101.398 167.776 98.4906 169.919 96.3474C172.062 94.2041 174.969 93 178 93ZM169.429 121.571H186.571C189.602 121.571 192.509 122.776 194.653 124.919C196.796 127.062 198 129.969 198 133V164.429H189.429V207.286H166.571V164.429H158V133C158 129.969 159.204 127.062 161.347 124.919C163.491 122.776 166.398 121.571 169.429 121.571Z" fill="#68F512"/>
<path d="M145.781 150.126C142.988 150.122 140.251 150.911 137.888 152.401C135.526 153.891 133.634 156.021 132.433 158.543C131.233 161.065 130.772 163.876 131.105 166.649C131.438 169.422 132.551 172.044 134.315 174.21L157.991 202L181.434 174.487L181.551 174.356L181.667 174.21C182.948 172.666 183.9 170.877 184.467 168.953C185.034 167.029 185.203 165.01 184.964 163.018C184.726 161.027 184.084 159.105 183.078 157.369C182.073 155.633 180.724 154.121 179.115 152.923C177.506 151.726 175.67 150.868 173.719 150.403C171.768 149.938 169.742 149.875 167.766 150.217C165.79 150.56 163.904 151.302 162.223 152.397C160.543 153.492 159.103 154.918 157.991 156.588C156.641 154.597 154.823 152.967 152.697 151.84C150.571 150.714 148.202 150.125 145.796 150.126H145.781Z" stroke="#FD0C0C" stroke-width="7" stroke-linecap="round" stroke-linejoin="round"/>
</svg>
