<svg width="330" height="300" viewBox="0 0 330 300" fill="none" xmlns="http://www.w3.org/2000/svg">
<path d="M178.268 227C164.917 227 151.867 223.041 140.767 215.624C129.666 208.207 121.015 197.665 115.906 185.331C110.797 172.997 109.46 159.425 112.065 146.331C114.669 133.238 121.098 121.21 130.538 111.77C139.978 102.33 152.005 95.9015 165.099 93.297C178.193 90.6925 191.765 92.0292 204.099 97.1382C216.433 102.247 226.975 110.899 234.392 121.999C241.809 133.099 245.768 146.15 245.768 159.5C245.768 177.402 238.656 194.571 225.997 207.23C213.339 219.888 196.17 227 178.268 227ZM178.268 101.643C166.825 101.643 155.638 105.036 146.124 111.394C136.609 117.751 129.194 126.787 124.815 137.359C120.436 147.931 119.29 159.564 121.522 170.787C123.755 182.011 129.265 192.32 137.356 200.411C145.448 208.503 155.757 214.013 166.98 216.245C178.203 218.478 189.837 217.332 200.409 212.953C210.981 208.574 220.017 201.158 226.374 191.644C232.731 182.129 236.125 170.943 236.125 159.5C236.125 144.155 230.029 129.439 219.179 118.589C208.328 107.739 193.612 101.643 178.268 101.643Z" fill="#444444"/>
<path d="M200.397 188.429L173.445 161.477V116.107H183.088V157.475L207.195 181.63L200.397 188.429Z" fill="#444444"/>
<path d="M136.176 198.007L101.17 163.001C99.284 161.115 96.7256 160.055 94.0581 160.055C91.3905 160.055 88.8322 161.115 86.9459 163.001C85.0597 164.888 84 167.446 84 170.113C84 171.434 84.2602 172.742 84.7656 173.963C85.2711 175.183 86.012 176.292 86.9459 177.226L129.114 219.394C133.049 223.328 139.404 223.328 143.339 219.394L250.071 112.662C251.957 110.775 253.017 108.217 253.017 105.549C253.017 102.882 251.957 100.324 250.071 98.4373C248.185 96.551 245.626 95.4913 242.959 95.4913C240.291 95.4913 237.733 96.551 235.847 98.4373L136.176 198.007Z" fill="#68F512"/>
</svg>
