<svg width="461" height="398" viewBox="0 0 461 398" fill="none" xmlns="http://www.w3.org/2000/svg">
<path d="M97.7402 91.5406V91.5401C97.7402 73.1176 112.646 58.0493 131.061 58.0493H403.771C422.19 58.0493 437.262 73.1215 437.262 91.5401V296.073C437.262 314.492 422.19 329.564 403.771 329.564H131.061C112.642 329.564 97.5697 314.492 97.5697 296.073L97.7402 91.5406ZM318.549 296.671H319.147V296.073V227.896V227.297H318.549H131.061H130.462V227.896V296.073V296.671H131.061H318.549ZM318.549 211.449H319.147V210.851V142.673V142.075H318.549H131.061H130.462V142.673V210.851V211.449H131.061H318.549ZM403.771 296.671H404.369V296.073V142.673V142.075H403.771H335.594H334.996V142.673V296.073V296.671H335.594H403.771Z" fill="#38B7FF" stroke="black" stroke-width="1.1961"/>
<mask id="path-2-inside-1_134_2" fill="white">
<path d="M128.783 281.361C129.367 276.546 129.805 271.73 129.805 266.769C129.805 261.807 129.367 256.992 128.783 252.176H153.445C154.612 256.846 155.342 261.734 155.342 266.769C155.342 271.803 154.612 276.692 153.445 281.361M115.869 321.928C120.247 313.829 123.603 305.074 125.938 295.954H147.462C140.393 308.126 129.178 317.346 115.869 321.928ZM114.045 281.361H79.8987C79.1691 276.546 78.7314 271.73 78.7314 266.769C78.7314 261.807 79.1691 256.919 79.8987 252.176H114.045C114.702 256.919 115.212 261.807 115.212 266.769C115.212 271.73 114.702 276.546 114.045 281.361ZM96.9719 324.847C90.916 316.091 86.0276 306.387 83.0361 295.954H110.908C107.916 306.387 103.028 316.091 96.9719 324.847ZM67.787 237.584H46.4821C53.4781 225.379 64.6847 216.144 78.0017 211.609C73.624 219.708 70.3407 228.464 67.787 237.584ZM46.4821 295.954H67.787C70.3407 305.074 73.624 313.829 78.0017 321.928C64.7126 317.344 53.5218 308.122 46.4821 295.954ZM40.4992 281.361C39.3318 276.692 38.6022 271.803 38.6022 266.769C38.6022 261.734 39.3318 256.846 40.4992 252.176H65.1604C64.5767 256.992 64.1389 261.807 64.1389 266.769C64.1389 271.73 64.5767 276.546 65.1604 281.361M96.9719 208.618C103.028 217.373 107.916 227.15 110.908 237.584H83.0361C86.0276 227.15 90.916 217.373 96.9719 208.618ZM147.462 237.584H125.938C123.654 228.547 120.273 219.824 115.869 211.609C129.294 216.206 140.457 225.472 147.462 237.584ZM96.9719 193.807C56.6238 193.807 24.0098 226.64 24.0098 266.769C24.0098 286.12 31.6968 304.678 45.3799 318.361C52.155 325.136 60.1983 330.51 69.0505 334.177C77.9027 337.844 87.3904 339.731 96.9719 339.731C116.323 339.731 134.881 332.044 148.564 318.361C162.247 304.678 169.934 286.12 169.934 266.769C169.934 257.187 168.047 247.7 164.38 238.847C160.713 229.995 155.339 221.952 148.564 215.177C141.789 208.402 133.745 203.027 124.893 199.361C116.041 195.694 106.553 193.807 96.9719 193.807Z"/>
</mask>
<path d="M128.783 281.361C129.367 276.546 129.805 271.73 129.805 266.769C129.805 261.807 129.367 256.992 128.783 252.176H153.445C154.612 256.846 155.342 261.734 155.342 266.769C155.342 271.803 154.612 276.692 153.445 281.361M115.869 321.928C120.247 313.829 123.603 305.074 125.938 295.954H147.462C140.393 308.126 129.178 317.346 115.869 321.928ZM114.045 281.361H79.8987C79.1691 276.546 78.7314 271.73 78.7314 266.769C78.7314 261.807 79.1691 256.919 79.8987 252.176H114.045C114.702 256.919 115.212 261.807 115.212 266.769C115.212 271.73 114.702 276.546 114.045 281.361ZM96.9719 324.847C90.916 316.091 86.0276 306.387 83.0361 295.954H110.908C107.916 306.387 103.028 316.091 96.9719 324.847ZM67.787 237.584H46.4821C53.4781 225.379 64.6847 216.144 78.0017 211.609C73.624 219.708 70.3407 228.464 67.787 237.584ZM46.4821 295.954H67.787C70.3407 305.074 73.624 313.829 78.0017 321.928C64.7126 317.344 53.5218 308.122 46.4821 295.954ZM40.4992 281.361C39.3318 276.692 38.6022 271.803 38.6022 266.769C38.6022 261.734 39.3318 256.846 40.4992 252.176H65.1604C64.5767 256.992 64.1389 261.807 64.1389 266.769C64.1389 271.73 64.5767 276.546 65.1604 281.361M96.9719 208.618C103.028 217.373 107.916 227.15 110.908 237.584H83.0361C86.0276 227.15 90.916 217.373 96.9719 208.618ZM147.462 237.584H125.938C123.654 228.547 120.273 219.824 115.869 211.609C129.294 216.206 140.457 225.472 147.462 237.584ZM96.9719 193.807C56.6238 193.807 24.0098 226.64 24.0098 266.769C24.0098 286.12 31.6968 304.678 45.3799 318.361C52.155 325.136 60.1983 330.51 69.0505 334.177C77.9027 337.844 87.3904 339.731 96.9719 339.731C116.323 339.731 134.881 332.044 148.564 318.361C162.247 304.678 169.934 286.12 169.934 266.769C169.934 257.187 168.047 247.7 164.38 238.847C160.713 229.995 155.339 221.952 148.564 215.177C141.789 208.402 133.745 203.027 124.893 199.361C116.041 195.694 106.553 193.807 96.9719 193.807Z" fill="#38B7FF"/>
<path d="M128.783 252.176V250.98H127.434L127.596 252.32L128.783 252.176ZM153.445 252.176L154.605 251.886L154.378 250.98H153.445V252.176ZM115.869 321.928L114.817 321.359L113.358 324.058L116.258 323.059L115.869 321.928ZM125.938 295.954V294.758H125.009L124.779 295.657L125.938 295.954ZM147.462 295.954L148.496 296.554L149.539 294.758H147.462V295.954ZM114.045 281.361V282.557H115.089L115.23 281.523L114.045 281.361ZM79.8987 281.361L78.7161 281.54L78.8702 282.557H79.8987V281.361ZM79.8987 252.176V250.98H78.8726L78.7166 251.994L79.8987 252.176ZM114.045 252.176L115.23 252.012L115.087 250.98H114.045V252.176ZM96.9719 324.847L95.9882 325.527L96.9719 326.949L97.9556 325.527L96.9719 324.847ZM83.0361 295.954V294.758H81.4489L81.8863 296.283L83.0361 295.954ZM110.908 295.954L112.057 296.283L112.495 294.758H110.908V295.954ZM67.787 237.584V238.78H68.6942L68.9388 237.906L67.787 237.584ZM46.4821 237.584L45.4444 236.989L44.4178 238.78H46.4821V237.584ZM78.0017 211.609L79.054 212.178L80.5052 209.493L77.6162 210.477L78.0017 211.609ZM46.4821 295.954V294.758H44.4083L45.4468 296.553L46.4821 295.954ZM67.787 295.954L68.9388 295.631L68.6942 294.758H67.787V295.954ZM78.0017 321.928L77.6117 323.059L80.5138 324.06L79.054 321.359L78.0017 321.928ZM40.4992 252.176V250.98H39.5653L39.3388 251.886L40.4992 252.176ZM65.1604 252.176L66.3478 252.32L66.5102 250.98H65.1604V252.176ZM96.9719 208.618L97.9556 207.938L96.9719 206.515L95.9882 207.938L96.9719 208.618ZM110.908 237.584V238.78H112.495L112.057 237.254L110.908 237.584ZM83.0361 237.584L81.8863 237.254L81.4489 238.78H83.0361V237.584ZM147.462 237.584V238.78H149.535L148.497 236.985L147.462 237.584ZM125.938 237.584L124.778 237.877L125.006 238.78H125.938V237.584ZM115.869 211.609L116.257 210.478L113.377 209.492L114.815 212.175L115.869 211.609ZM96.9719 193.807V192.611V193.807ZM96.9719 339.731V340.927V339.731ZM129.971 281.505C130.557 276.668 131.001 271.799 131.001 266.769H128.609C128.609 271.661 128.177 276.423 127.596 281.217L129.971 281.505ZM131.001 266.769C131.001 261.739 130.557 256.869 129.971 252.032L127.596 252.32C128.177 257.114 128.609 261.876 128.609 266.769H131.001ZM128.783 253.372H153.445V250.98H128.783V253.372ZM152.284 252.466C153.433 257.06 154.145 261.85 154.145 266.769H156.538C156.538 261.619 155.791 256.632 154.605 251.886L152.284 252.466ZM154.145 266.769C154.145 271.688 153.433 276.478 152.284 281.071L154.605 281.651C155.791 276.906 156.538 271.919 156.538 266.769H154.145ZM116.921 322.497C121.349 314.306 124.739 305.459 127.097 296.25L124.779 295.657C122.467 304.689 119.145 313.352 114.817 321.359L116.921 322.497ZM125.938 297.15H147.462V294.758H125.938V297.15ZM146.427 295.353C139.503 307.277 128.517 316.309 115.48 320.797L116.258 323.059C129.839 318.384 141.283 308.975 148.496 296.554L146.427 295.353ZM114.045 280.165H79.8987V282.557H114.045V280.165ZM81.0814 281.182C80.3589 276.414 79.9275 271.659 79.9275 266.769H77.5353C77.5353 271.801 77.9794 276.678 78.7161 281.54L81.0814 281.182ZM79.9275 266.769C79.9275 261.877 80.3591 257.05 81.0809 252.358L78.7166 251.994C77.9792 256.788 77.5353 261.737 77.5353 266.769H79.9275ZM79.8987 253.372H114.045V250.98H79.8987V253.372ZM112.86 252.34C113.514 257.059 114.016 261.886 114.016 266.769H116.409C116.409 261.729 115.89 256.779 115.23 252.012L112.86 252.34ZM114.016 266.769C114.016 271.651 113.514 276.404 112.86 281.2L115.23 281.523C115.89 276.687 116.409 271.81 116.409 266.769H114.016ZM97.9556 324.166C91.9628 315.502 87.1365 305.915 84.1859 295.624L81.8863 296.283C84.9187 306.859 89.8693 316.68 95.9882 325.527L97.9556 324.166ZM83.0361 297.15H110.908V294.758H83.0361V297.15ZM109.758 295.624C106.807 305.915 101.981 315.502 95.9882 324.166L97.9556 325.527C104.074 316.68 109.025 306.859 112.057 296.283L109.758 295.624ZM67.787 236.388H46.4821V238.78H67.787V236.388ZM47.5198 238.179C54.3711 226.226 65.3457 217.182 78.3873 212.742L77.6162 210.477C64.0236 215.105 52.5852 224.532 45.4444 236.989L47.5198 238.179ZM76.9495 211.041C72.5198 219.236 69.2066 228.078 66.6352 237.261L68.9388 237.906C71.4748 228.849 74.7282 220.181 79.054 212.178L76.9495 211.041ZM46.4821 297.15H67.787V294.758H46.4821V297.15ZM66.6352 296.276C69.2066 305.46 72.5198 314.302 76.9495 322.497L79.054 321.359C74.7282 313.357 71.4748 304.688 68.9388 295.631L66.6352 296.276ZM78.3918 320.797C65.3747 316.307 54.413 307.274 47.5174 295.355L45.4468 296.553C52.6306 308.97 64.0505 318.381 77.6117 323.059L78.3918 320.797ZM41.6596 281.071C40.5112 276.478 39.7983 271.688 39.7983 266.769H37.4061C37.4061 271.919 38.1524 276.906 39.3388 281.651L41.6596 281.071ZM39.7983 266.769C39.7983 261.85 40.5112 257.06 41.6596 252.466L39.3388 251.886C38.1524 256.632 37.4061 261.619 37.4061 266.769H39.7983ZM40.4992 253.372H65.1604V250.98H40.4992V253.372ZM63.973 252.032C63.3867 256.869 62.9428 261.739 62.9428 266.769H65.335C65.335 261.876 65.7667 257.114 66.3478 252.32L63.973 252.032ZM62.9428 266.769C62.9428 271.799 63.3867 276.668 63.973 281.505L66.3478 281.217C65.7667 276.423 65.335 271.661 65.335 266.769H62.9428ZM95.9882 209.298C101.98 217.961 106.807 227.62 109.758 237.914L112.057 237.254C109.026 226.68 104.076 216.786 97.9556 207.938L95.9882 209.298ZM110.908 236.388H83.0361V238.78H110.908V236.388ZM84.1859 237.914C87.1371 227.62 91.9642 217.961 97.9556 209.298L95.9882 207.938C89.8678 216.786 84.9181 226.68 81.8863 237.254L84.1859 237.914ZM147.462 236.388H125.938V238.78H147.462V236.388ZM127.097 237.291C124.79 228.16 121.373 219.345 116.923 211.044L114.815 212.175C119.173 220.303 122.519 228.935 124.778 237.877L127.097 237.291ZM115.482 212.741C128.632 217.243 139.565 226.319 146.426 238.183L148.497 236.985C141.349 224.625 129.957 215.169 116.257 210.478L115.482 212.741ZM96.9719 192.611C55.9609 192.611 22.8137 225.981 22.8137 266.769H25.2059C25.2059 227.298 57.2868 195.003 96.9719 195.003V192.611ZM22.8137 266.769C22.8137 286.437 30.6267 305.299 44.5341 319.207L46.2256 317.515C32.7669 304.056 25.2059 285.802 25.2059 266.769H22.8137ZM44.5341 319.207C51.4203 326.093 59.5955 331.555 68.5928 335.282L69.5082 333.072C60.8012 329.465 52.8897 324.179 46.2256 317.515L44.5341 319.207ZM68.5928 335.282C77.5901 339.009 87.2333 340.927 96.9719 340.927V338.535C87.5474 338.535 78.2153 336.679 69.5082 333.072L68.5928 335.282ZM96.9719 340.927C116.64 340.927 135.502 333.114 149.41 319.207L147.718 317.515C134.259 330.974 116.005 338.535 96.9719 338.535V340.927ZM149.41 319.207C163.317 305.299 171.13 286.437 171.13 266.769H168.738C168.738 285.802 161.177 304.056 147.718 317.515L149.41 319.207ZM171.13 266.769C171.13 257.03 169.212 247.387 165.485 238.39L163.275 239.305C166.882 248.012 168.738 257.344 168.738 266.769H171.13ZM165.485 238.39C161.758 229.392 156.296 221.217 149.41 214.331L147.718 216.023C154.382 222.687 159.668 230.598 163.275 239.305L165.485 238.39ZM149.41 214.331C142.523 207.445 134.348 201.982 125.351 198.256L124.436 200.466C133.143 204.072 141.054 209.358 147.718 216.023L149.41 214.331ZM125.351 198.256C116.354 194.529 106.71 192.611 96.9719 192.611V195.003C106.396 195.003 115.729 196.859 124.436 200.466L125.351 198.256Z" fill="black" mask="url(#path-2-inside-1_134_2)"/>
</svg>
